<?xml version="1.0" encoding="UTF-8" standalone="no"?>
<svg
   version="1.1"
   viewBox="0 0 1600 900"
   style="width: 100%; height: 100%; z-index: 5;"
   id="svg341"
   sodipodi:docname="Aicrea.svg"
   inkscape:export-filename="Aicrea.png"
   inkscape:export-xdpi="96"
   inkscape:export-ydpi="96"
   inkscape:version="1.2.2 (b0a8486, 2022-12-01)"
   xmlns:inkscape="http://www.inkscape.org/namespaces/inkscape"
   xmlns:sodipodi="http://sodipodi.sourceforge.net/DTD/sodipodi-0.dtd"
   xmlns="http://www.w3.org/2000/svg"
   xmlns:svg="http://www.w3.org/2000/svg">
  <defs
     id="defs345" />
  <sodipodi:namedview
     id="namedview343"
     pagecolor="#ffffff"
     bordercolor="#000000"
     borderopacity="0.25"
     inkscape:showpageshadow="2"
     inkscape:pageopacity="0.0"
     inkscape:pagecheckerboard="0"
     inkscape:deskcolor="#d1d1d1"
     showgrid="false"
     inkscape:zoom="0.62212866"
     inkscape:cx="692.78274"
     inkscape:cy="431.58275"
     inkscape:window-width="1823"
     inkscape:window-height="1027"
     inkscape:window-x="686"
     inkscape:window-y="37"
     inkscape:window-maximized="0"
     inkscape:current-layer="svg341" />
  <g
     fill="#0d0311"
     fill-rule="nonzero"
     transform="matrix(4.8738651,0,0,4.8738651,598.77402,84.263281)"
     id="g327">
    <svg
       fill="#0d0311"
       width="85.848717"
       height="88.636017"
       viewBox="7.8490005 5.6829996 85.848717 88.636017"
       version="1.1"
       id="svg325">
      <path
         d="M 80.23,11.53 C 74.765,7.869 65.582,5.683 55.665,5.683 c -12.57,0 -23.316,3.355 -28.746,8.976 -4.927,5.1 -9.545,13.373 -8.242,18.693 h -2.753 a 2,2 0 0 0 -2,2 v 10.182 a 2,2 0 0 0 2,2 h 1.452 c -6.232,9.422 -6.185,10.32 -5.938,11.31 1.1,4.42 9.326,3.863 9.326,3.863 l 0.099,13.535 c 0.002,0.277 3.327,5.919 5.05,5.984 2.17,0.082 10.216,0.208 10.938,0.273 0.581,0.451 1.72,1.887 1.981,2.453 0.147,0.804 0.306,4.42 0.371,7.41 a 2,2 0 0 0 2,1.957 h 36.201 a 2,2 0 0 0 2,-2 V 70.27 C 82.607,68.151 92.071,60.737 93.271,46.485 94.411,32.905 94.219,20.902 80.23,11.53 Z m 0.52,5.372 -5.014,7.604 c -1.151,-1.324 -3.423,-3.445 -7.033,-4.779 1.095,-1.36 3.987,-6.192 4.572,-7.228 3.475,1.095 5.756,2.939 7.475,4.403 z M 53.583,50.789 V 33.247 h 17.542 v 17.542 z m 4.398,39.528 H 56.856 V 79.062 l 1.125,-0.071 z M 46.606,79.708 V 90.317 H 45.293 V 79.79 Z m 1,-0.063 1.313,-0.083 v 10.755 h -1.313 z m 2.313,-0.146 1.313,-0.083 v 10.901 h -1.313 z m 2.312,-0.146 1.313,-0.083 v 11.046 h -1.313 z m 2.313,-0.145 1.313,-0.083 V 90.317 H 54.544 Z M 48.356,77.593 V 70.25 a 0.997,0.997 0 0 0 -0.27,-0.683 l -3.01,-3.22 c 1.516,-1.477 3.075,-2.986 4.203,-3.386 1.707,-0.605 4.285,0.802 5.133,1.396 0.276,0.194 0.635,0.236 0.947,0.11 l 2.444,-0.98 c 0.321,-0.129 0.552,-0.414 0.613,-0.754 0.296,-1.672 2.222,-9.943 2.222,-9.943 v 3.417 a 0.5,0.5 0 0 0 1,0 V 52.79 h 1.25 v 3.417 a 0.5,0.5 0 0 0 1,0 V 52.79 h 1.125 v 3.417 a 0.5,0.5 0 0 0 1,0 V 52.79 h 0.781 v 16.088 c -2.703,4.484 -3.943,6.675 -4.443,7.834 z M 33.252,50.112 c 2.281,-0.625 5.9,-2.098 6.107,-2.138 1.008,0.284 13.15,4.81 13.206,4.812 v 3.42 a 0.5,0.5 0 0 0 1,0 v -3.417 h 0.958 v 3.417 a 0.5,0.5 0 0 0 1,0 v -3.417 h 0.958 v 3.417 a 0.494,0.494 0 1 0 0.877,0.319 c -0.289,2.002 -0.606,4.05 -0.818,5.314 l -1.446,0.58 c -1.124,-0.684 -4.253,-2.349 -6.698,-1.48 -1.558,0.553 -7.438,6.563 -8.938,7.104 -0.512,0.185 -3.542,0.292 -2.638,-2.904 1.185,-4.192 -2.181,-12.092 -3.568,-15.027 z m -1.986,0.477 c 0.892,1.837 2.215,4.907 3.051,7.845 h -6.773 v -8.106 c 1.144,0.334 2.398,0.475 3.722,0.261 z m 26.31,-19.342 h -2.053 v -2.225 c 0.153,0.188 1.414,1.775 2.053,2.225 z m -0.373,-4.562 c 0,-1.972 1.604,-3.576 3.576,-3.576 1.972,0 3.576,1.604 3.576,3.576 0,1.972 -1.604,3.576 -3.576,3.576 -1.972,0 -3.576,-1.605 -3.576,-3.576 z m -2.68,4.562 h -1.417 v -3.458 a 0.5,0.5 0 0 0 -1,0 v 3.596 a 0.989,0.989 0 0 0 -0.37,0.362 H 48.19 a 0.5,0.5 0 0 0 0,1 h 3.394 v 1.565 H 48.19 a 0.5,0.5 0 0 0 0,1 h 3.394 v 1.813 H 48.19 a 0.5,0.5 0 0 0 0,1 h 3.394 v 1.719 H 48.19 a 0.5,0.5 0 0 0 0,1 h 3.394 v 1.844 H 48.19 a 0.5,0.5 0 0 0 0,1 h 3.394 v 2.031 H 48.19 a 0.5,0.5 0 0 0 0,1 h 3.394 v 1.688 H 48.19 a 0.497,0.497 0 0 0 -0.494,0.47 c -3.679,-1.378 -7.549,-2.803 -8.045,-2.886 a 1.594,1.594 0 0 0 -0.267,-0.022 c -0.511,0 -4.633,1.678 -6.98,2.301 1.733,-2.725 2.703,-6.186 2.703,-9.77 0,-3.216 -0.767,-6.202 -2.075,-8.667 11.691,-0.85 11.922,-2.826 12,-3.489 0.182,-1.558 2.026,-5.693 5.521,-6.843 0.543,0.426 3.315,6.881 4.012,8.093 -0.027,0.059 -0.042,3.653 -0.042,3.653 z m -2.94,18.159 V 50.34 L 49.108,49.406 Z M 34.807,60.434 c 0.076,0.38 0.136,0.749 0.184,1.109 H 24.755 L 24.75,60.846 a 1.993,1.993 0 0 0 -0.049,-0.412 z m 0.248,3.327 H 24.771 L 24.762,62.543 H 35.08 c 0.022,0.433 0.017,0.842 -0.025,1.218 z M 24.787,65.98 24.778,64.761 h 10.074 c -0.121,0.44 -0.198,0.846 -0.237,1.219 z m 0.008,1 h 9.804 c 0.039,0.469 0.142,0.873 0.289,1.218 H 24.803 Z m 0.032,4.437 h 8.032 l -0.885,1.208 h -7.139 z m 8.764,-1 H 24.82 l -0.009,-1.218 h 9.672 z M 57.863,52.789 c -0.1,0.827 -0.235,1.828 -0.382,2.871 v -2.871 z m 8.112,21.419 h 9.426 v 1.083 H 65.359 c 0.191,-0.34 0.398,-0.702 0.616,-1.083 z m 9.426,-1 h -8.848 c 0.183,-0.314 0.37,-0.634 0.561,-0.958 h 8.287 z m -10.597,3.084 h 10.598 v 1.339 H 64.116 c 0.118,-0.271 0.36,-0.739 0.688,-1.339 z M 75.401,71.25 h -7.695 c 0.217,-0.365 0.436,-0.732 0.654,-1.094 h 7.042 V 71.25 Z M 71.773,30.905 V 27.79 a 0.5,0.5 0 0 0 -1,0 v 3.458 H 69.648 V 27.79 a 0.5,0.5 0 0 0 -1,0 v 3.458 h -1.25 V 27.79 a 0.5,0.5 0 0 0 -1,0 v 3.458 H 63.98 a 5.574,5.574 0 0 0 1.38,-7.737 c 0.386,-0.4 1.115,-1.169 1.966,-2.144 4.106,1.321 6.44,3.853 7.272,4.907 z M 55.666,9.683 c 5.778,0.035 11.232,0.771 15.687,2.153 -2.228,4.122 -6.399,9.21 -7.409,10.261 a 5.544,5.544 0 0 0 -3.166,-0.988 5.585,5.585 0 0 0 -5.309,3.871 c -0.346,-0.739 -3.053,-7.959 -4.907,-7.709 -4.504,0.607 -7.148,6.314 -7.498,8.692 -0.91,0.8 -6.447,1.641 -11.24,1.946 C 30.134,25.622 27.9,24.033 25.4,23.458 30.437,15.5 35.875,9.563 55.666,9.683 Z m -31.25,15.608 c 4.879,0.723 8.742,6.368 8.69,13.208 -0.044,5.782 -3.439,10.124 -3.469,10.177 -2.773,-0.168 -5.142,-2.161 -6.162,-3.158 h 2.387 c 0.167,0 0.33,-0.042 0.477,-0.121 0.213,-0.116 2.086,-1.238 2.086,-4.955 0,-3.843 -1.912,-4.872 -2.129,-4.977 A 0.998,0.998 0 0 0 25.863,35.366 H 23.23 c 0.002,-0.182 -1.025,-3.195 -0.993,-5.104 0.017,-1.041 1.093,-2.823 2.179,-4.971 z m -6.492,12.061 7.608,0.016 c 0.283,0.278 0.892,1.107 0.892,3.075 0,1.943 -0.618,2.79 -0.901,3.076 l -7.599,0.016 z m 4.453,9.888 c 0.893,0.834 2.349,1.996 4.167,2.738 v 8.456 L 17.16,58.402 c -0.011,-10e-4 -0.898,-0.079 -1.434,-0.711 0.944,-1.726 3.866,-6.278 6.651,-10.451 z m 2.481,28.535 -0.008,-1.15 h 7.631 a 1,1 0 0 0 0.807,-0.409 l 3.164,-4.321 c 1.396,0.747 3.169,0.585 4.078,0.169 0.981,-0.451 2.02,-1.315 3.106,-2.331 l 2.721,2.911 v 7.075 l -11.209,0.706 c -0.726,-0.018 -6.72,-0.113 -8.74,-0.184 -0.392,-0.39 -1.047,-1.433 -1.55,-2.466 z m 15.277,4.34 1.847,-0.116 v 2.439 a 14.585,14.585 0 0 0 -1.847,-2.323 z m 2.846,6.406 v -6.585 l 1.313,-0.083 V 90.317 H 43.15 a 112.286,112.286 0 0 0 -0.169,-3.796 z m 17,3.796 V 78.865 L 75.401,78.63 V 90.317 Z M 89.282,46.149 C 88,62.167 75.852,67.845 75.672,68.156 H 68.794 V 52.789 h 0.729 v 3.417 a 0.5,0.5 0 0 0 1,0 v -3.417 h 1.207 v 3.417 a 0.5,0.5 0 0 0 1,0 v -3.64 a 0.982,0.982 0 0 0 0.396,-0.776 v -2.383 h 3.521 a 0.5,0.5 0 0 0 0,-1 h -3.521 v -1.688 h 3.521 a 0.5,0.5 0 0 0 0,-1 h -3.521 v -2.031 h 3.521 a 0.5,0.5 0 0 0 0,-1 h -3.521 v -1.844 h 3.521 a 0.5,0.5 0 0 0 0,-1 h -3.521 v -1.719 h 3.521 a 0.5,0.5 0 0 0 0,-1 h -3.521 v -1.813 h 3.521 a 0.5,0.5 0 0 0 0,-1 h -3.521 v -1.565 h 3.625 a 0.5,0.5 0 0 0 0,-1 h -3.149 l 8.659,-13.504 c 7.955,7.598 7.904,16.868 7.021,27.906 z m -9.754,7.114 c -1.838,0 -3.333,1.496 -3.333,3.333 0,1.837 1.496,3.333 3.333,3.333 1.837,0 3.333,-1.495 3.333,-3.333 0,-1.838 -1.495,-3.333 -3.333,-3.333 z m 0,4.666 a 1.335,1.335 0 0 1 -1.333,-1.333 c 0,-0.735 0.598,-1.333 1.333,-1.333 0.735,0 1.333,0.598 1.333,1.333 a 1.333,1.333 0 0 1 -1.333,1.333 z M 79.344,27.438 c 0,1.813 1.475,3.288 3.288,3.288 1.813,0 3.288,-1.475 3.288,-3.288 0,-1.813 -1.475,-3.288 -3.288,-3.288 -1.813,0 -3.288,1.475 -3.288,3.288 z m 4.575,0 c 0,0.71 -0.578,1.288 -1.288,1.288 -0.71,0 -1.288,-0.578 -1.288,-1.288 0,-0.71 0.578,-1.288 1.288,-1.288 0.71,0 1.288,0.579 1.288,1.288 z M 66.731,44.433 c -1.344,0 -2.438,1.093 -2.438,2.438 0,1.345 1.093,2.438 2.438,2.438 1.345,0 2.438,-1.093 2.438,-2.438 0,-1.345 -1.093,-2.438 -2.438,-2.438 z m 0,3.875 c -0.792,0 -1.438,-0.645 -1.438,-1.438 0,-0.793 0.645,-1.438 1.438,-1.438 0.793,0 1.438,0.645 1.438,1.438 0,0.793 -0.645,1.438 -1.438,1.438 z m 17.214,-6.623 c 0,1.011 0.822,1.833 1.833,1.833 1.011,0 1.833,-0.822 1.833,-1.833 0,-1.011 -0.822,-1.833 -1.833,-1.833 -1.011,0 -1.833,0.822 -1.833,1.833 z m 2.666,0 c 0,0.459 -0.374,0.833 -0.833,0.833 -0.459,0 -0.833,-0.374 -0.833,-0.833 0,-0.459 0.374,-0.833 0.833,-0.833 0.459,0 0.833,0.374 0.833,0.833 z M 38.882,63.831 c 0,0.712 0.58,1.292 1.292,1.292 0.712,0 1.292,-0.58 1.292,-1.292 0,-0.712 -0.58,-1.292 -1.292,-1.292 -0.712,0 -1.292,0.58 -1.292,1.292 z m 1.584,0 a 0.2925,0.2925 0 1 1 -0.585,0 0.2925,0.2925 0 0 1 0.585,0 z M 38.799,53.289 c 1.034,0 1.875,-0.841 1.875,-1.875 0,-1.034 -0.841,-1.875 -1.875,-1.875 -1.034,0 -1.875,0.841 -1.875,1.875 0,1.034 0.842,1.875 1.875,1.875 z m 0,-2.75 c 0.482,0 0.875,0.393 0.875,0.875 0,0.482 -0.393,0.875 -0.875,0.875 -0.482,0 -0.875,-0.393 -0.875,-0.875 0,-0.482 0.393,-0.875 0.875,-0.875 z m 31.639,33.737 c -0.862,0 -1.563,0.701 -1.563,1.563 0,0.862 0.701,1.563 1.563,1.563 0.862,0 1.563,-0.701 1.563,-1.563 0,-0.862 -0.701,-1.563 -1.563,-1.563 z m 0,2.126 a 0.563,0.563 0 1 1 0,-1.126 0.563,0.563 0 0 1 0,1.126 z M 40.174,30.761 c -1.034,0 -1.875,0.841 -1.875,1.875 0,1.034 0.841,1.875 1.875,1.875 1.034,0 1.875,-0.841 1.875,-1.875 0,-1.034 -0.841,-1.875 -1.875,-1.875 z m 0,2.75 c -0.482,0 -0.875,-0.393 -0.875,-0.875 0,-0.482 0.393,-0.875 0.875,-0.875 0.482,0 0.875,0.393 0.875,0.875 0,0.482 -0.392,0.875 -0.875,0.875 z m 16.049,37.311 c -1.034,0 -1.875,0.841 -1.875,1.875 0,1.034 0.841,1.875 1.875,1.875 1.034,0 1.875,-0.841 1.875,-1.875 0,-1.034 -0.842,-1.875 -1.875,-1.875 z m 0,2.75 c -0.482,0 -0.875,-0.393 -0.875,-0.875 0,-0.482 0.393,-0.875 0.875,-0.875 0.482,0 0.875,0.393 0.875,0.875 0,0.482 -0.393,0.875 -0.875,0.875 z M 8.888,40.167 c 0,0.276 -0.224,0.5 -0.5,0.5 -0.276,0 -0.539,-0.224 -0.539,-0.5 0,-0.276 0.185,-0.5 0.461,-0.5 h 0.078 a 0.5,0.5 0 0 1 0.5,0.5 z m 1.429,0 c 0,0.276 -0.185,0.5 -0.461,0.5 H 9.778 a 0.5,0.5 0 0 1 0,-1 c 0.276,0 0.539,0.223 0.539,0.5 z m 1,0.5 h -0.078 a 0.5,0.5 0 0 1 0,-1 c 0.276,0 0.539,0.224 0.539,0.5 0,0.276 -0.184,0.5 -0.461,0.5 z m 0.961,-0.5 c 0,-0.276 0.224,-0.5 0.5,-0.5 0.276,0 0.539,0.224 0.539,0.5 0,0.276 -0.185,0.5 -0.461,0.5 h -0.078 a 0.5,0.5 0 0 1 -0.5,-0.5 z m 8.307,0.5 h -0.078 a 0.5,0.5 0 0 1 0,-1 c 0.276,0 0.539,0.224 0.539,0.5 0,0.276 -0.184,0.5 -0.461,0.5 z m 2.725,-0.5 c 0,-0.276 0.224,-0.5 0.5,-0.5 0.276,0 0.539,0.224 0.539,0.5 0,0.276 -0.185,0.5 -0.461,0.5 H 23.81 a 0.5,0.5 0 0 1 -0.5,-0.5 z m -3.842,0 c 0,0.276 -0.185,0.5 -0.461,0.5 h -0.078 a 0.5,0.5 0 0 1 0,-1 c 0.276,0 0.539,0.223 0.539,0.5 z m 2.263,0 c 0,-0.276 0.224,-0.5 0.5,-0.5 0.276,0 0.539,0.224 0.539,0.5 0,0.276 -0.185,0.5 -0.461,0.5 h -0.078 a 0.5,0.5 0 0 1 -0.5,-0.5 z"
         id="path323" />
    </svg>
  </g>
  <g
     fill="#0d0311"
     transform="matrix(3,0,0,3,147.02456,752.45527)"
     id="g331"
     style="fill-rule:nonzero">
    <path
       fill-rule="nonzero"
       d="m 19.872,-20.952 c 5.832,0.936 10.584,3.6 13.608,7.416 1.872,2.448 3.096,5.472 3.096,7.848 0,2.88 -1.08,4.32 -3.6,5.112 V 0 h 16.56 V -0.576 C 47.088,-1.44 46.152,-2.592 44.712,-6.912 l -11.736,-33.912 -0.648,-1.728 c -0.288,-0.864 -0.432,-1.656 -0.432,-2.16 0,-1.368 0.576,-2.16 2.16,-2.664 v -0.648 h -16.2 v 0.648 c 1.584,0.36 2.232,1.152 2.232,2.448 0,0.864 -0.216,2.016 -0.72,3.312 L 6.984,-9 C 4.824,-3.312 3.24,-1.296 0.216,-0.576 V 0 H 15.12 v -0.576 c -2.664,-0.432 -4.032,-1.8 -4.032,-4.032 0,-1.008 0.432,-3.024 0.864,-4.32 l 4.536,-12.456 c 1.512,0.144 2.664,0.288 3.384,0.432 z m 4.32,-21.6 8.136,23.328 c -3.312,-3.024 -4.824,-3.888 -8.424,-4.968 -2.376,-0.72 -3.528,-0.864 -6.336,-0.864 z m 42.335818,31.536 v -25.992 c 0,-8.28 0.432,-9.288 4.608,-10.368 v -0.648 h -17.208 v 0.648 c 4.32,1.008 4.752,2.016 4.752,10.368 v 25.992 c 0,8.352 -0.432,9.432 -4.752,10.44 V 0 h 17.208 v -0.576 c -4.176,-1.152 -4.608,-2.088 -4.608,-10.44 z M 75.383636,0 Z m 68.255814,-14.184 c -3.744,7.632 -9,11.232 -16.272,11.232 -12.528,0 -21.744,-10.368 -21.744,-24.408 0,-11.016 6.264,-17.856 16.344,-17.856 4.32,0 8.496,1.296 11.52,3.6 2.232,1.728 3.096,2.88 4.608,5.976 l 0.576,-0.216 -3.312,-13.752 c -0.648,1.08 -1.44,1.44 -2.952,1.44 -0.432,0 -1.44,-0.072 -2.232,-0.144 -4.68,-0.576 -5.184,-0.648 -7.92,-0.648 -15.984,0 -25.559996,8.496 -25.559996,22.68 0,8.064 3.311996,15.48 8.999996,20.376 5.4,4.608 12.6,6.84 21.888,6.84 1.296,0 2.52,0 3.672,-0.072 l 3.096,-0.288 h 1.224 l 1.224,-0.072 h 0.36 c 0.648,0 0.864,0 1.512,0.288 l 5.616,-14.688 z M 158.18327,-36 l -9.936,0.936 v 0.576 c 3.672,0.648 4.248,1.584 4.248,7.56 v 18.792 c 0,5.976 -0.576,6.984 -4.248,7.56 V 0 h 16.416 v -0.576 c -4.104,-0.288 -4.824,-1.368 -4.824,-7.56 v -4.536 c 0,-5.976 0.504,-10.368 1.44,-12.888 1.08,-2.88 4.104,-4.968 7.2,-4.968 1.728,0 2.664,0.288 4.68,1.512 l 1.584,-6.984 c -1.152,-0.144 -2.016,-0.216 -2.592,-0.216 -2.016,0 -4.248,0.648 -6.408,1.872 -3.096,1.8 -4.176,2.952 -5.904,6.408 -0.144,-3.816 -0.36,-5.112 -1.656,-8.064 z m 37.94382,-0.72 c -10.944,0 -19.296,8.064 -19.296,18.648 0,11.232 9,18.792 22.248,18.792 2.304,0 4.896,-0.216 6.912,-0.504 L 207.50309,0 c 0.216,-0.072 0.504,-0.072 0.72,-0.072 0.72,0 1.152,0.144 1.728,0.576 l 3.816,-12.096 -0.648,-0.288 c -1.44,2.952 -2.088,3.888 -3.528,5.256 -2.232,2.088 -6.12,3.6 -9.36,3.6 -3.96,0 -8.28,-1.944 -11.088,-5.04 -2.232,-2.52 -3.024,-4.104 -3.96,-8.28 l 27.936,-7.776 c -2.304,-7.848 -8.712,-12.6 -16.992,-12.6 z m -11.304,16.848 c 0,-7.704 4.176,-12.888 10.44,-12.888 4.32,0 7.344,2.448 9.36,7.632 l -19.8,5.616 z M 248.03891,0 h 10.008 v -0.576 c -3.96,-1.08 -5.184,-3.24 -5.184,-9.288 v -15.48 c 0,-4.68 -0.504,-6.48 -2.448,-8.424 -2.088,-2.016 -5.112,-2.952 -9.936,-2.952 -4.536,0 -7.056,0.504 -12.6,2.376 -1.224,0.432 -1.944,0.576 -2.592,0.576 -1.008,0 -1.512,-0.216 -2.16,-0.864 l -1.08,11.88 0.432,0.072 c 1.08,-2.52 1.728,-3.528 2.952,-4.968 2.88,-3.24 7.2,-4.968 12.24,-4.968 5.256,0 7.344,1.944 7.344,6.912 0,0.36 0,0.936 0,1.728 -4.248,0.864 -5.904,1.296 -9.36,2.304 -11.16,3.096 -16.272,7.416 -16.272,13.608 0,5.4 4.392,8.784 11.52,8.784 2.736,0 5.4,-0.504 7.848,-1.44 3.168,-1.224 4.536,-2.448 6.768,-5.832 0.36,3.024 0.72,4.032 2.52,6.552 z m -2.808,-19.008 c 0,5.256 -0.504,8.352 -1.872,10.512 -1.872,2.952 -5.832,5.112 -9.576,5.112 -3.672,0 -6.12,-2.232 -6.12,-5.544 0,-5.328 6.12,-9.504 17.568,-12.024 0,0.864 0,1.512 0,1.944 z m 36.64781,-16.272 h -6.84 V -48.6 c -2.952,1.296 -3.672,1.656 -6.48,2.952 0.36,1.8 0.432,2.664 0.432,3.672 0,4.752 -2.088,7.92 -6.192,9.504 v 0.576 h 4.896 V -9 c 0,6.552 2.808,9.72 8.64,9.72 2.952,0 6.48,-0.504 8.928,-1.368 l 2.44801,-5.976 -0.43201,-0.216 c -2.16,2.52 -4.24799,3.6 -6.84,3.6 -3.52799,0 -5.4,-2.304 -5.4,-6.768 v -21.888 h 6.40801 c 1.44,0 1.656,0 2.15999,0.504 l 2.088,-5.04 c -1.29599,1.008 -1.872,1.152 -3.816,1.152 z m 9.14382,0.216 v 0.576 c 3.744,0.576 4.32,1.584 4.32,7.56 v 18.792 c 0,5.976 -0.576,6.984 -4.32,7.56 V 0 h 16.272 v -0.576 c -3.96,-0.36 -4.608,-1.44 -4.608,-7.56 V -36 Z m 7.848,-16.272 c -2.808,0 -4.896,2.304 -4.896,5.328 0,3.024 2.16,5.328 4.968,5.328 2.736,0 4.968,-2.376 4.968,-5.328 0,-3.024 -2.232,-5.328 -5.04,-5.328 z m 35.71182,14.616 c -11.952,0 -20.16,7.704 -20.16,18.864 0,11.088 7.776,18.576 19.296,18.576 11.952,0 20.232,-7.776 20.232,-19.08 0,-11.016 -7.776,-18.36 -19.368,-18.36 z m -0.36,33.84 c -6.984,0 -11.808,-6.624 -11.808,-16.344 0,-8.712 4.32,-14.04 11.448,-14.04 7.344,0 12.096,6.192 12.096,15.768 0,8.856 -4.608,14.616 -11.736,14.616 z m 37.22382,-33.12 -9.936,0.936 v 0.576 c 3.744,0.576 4.32,1.584 4.32,7.56 v 18.792 c 0,6.048 -0.576,7.056 -4.32,7.56 V 0 h 15.984 v -0.576 c -3.672,-0.576 -4.248,-1.584 -4.248,-7.56 v -8.928 c 0,-4.896 0.504,-6.84 2.448,-9.432 2.16,-2.952 5.688,-4.968 8.784,-4.968 3.96,0 5.544,2.52 5.544,8.928 v 14.4 c 0,6.048 -0.648,7.056 -4.392,7.56 V 0 h 16.272 v -0.576 c -3.888,-0.432 -4.536,-1.44 -4.536,-7.56 v -17.28 c 0,-2.016 -0.144,-3.816 -0.504,-5.328 -0.864,-3.744 -4.104,-5.976 -8.712,-5.976 -4.68,0 -9.216,2.592 -14.904,8.424 -0.216,-3.816 -0.432,-4.968 -1.8,-7.704 z m 63.71982,1.008 c -0.504,0 -1.152,-0.144 -2.016,-0.288 l -2.232,-0.576 c -2.592,-0.576 -4.968,-0.864 -7.344,-0.864 -8.352,0 -13.824,3.888 -13.824,9.792 0,1.584 0.432,3.096 1.224,4.392 1.512,2.448 3.96,3.888 9.216,5.544 l 6.768,2.16 c 4.392,1.368 5.976,2.736 5.976,5.256 0,3.888 -4.104,6.768 -9.504,6.768 -7.704,0 -13.104,-4.464 -14.472,-12.024 l -0.576,0.144 0.576,14.256 c 0.72,-0.72 1.152,-0.936 1.872,-0.936 0.288,0 0.864,0.072 1.512,0.216 l 1.44,0.36 2.16,0.504 c 2.52,0.576 6.264,1.008 8.856,1.008 8.928,0 15.624,-5.328 15.624,-12.456 0,-4.752 -2.52,-7.272 -9.36,-9.432 l -7.632,-2.376 c -5.04,-1.584 -6.48,-2.736 -6.48,-5.04 0,-2.736 2.88,-4.464 7.416,-4.464 3.312,0 6.552,1.08 9,3.096 2.16,1.656 2.88,2.808 3.6,5.76 l 0.504,-0.072 -0.504,-11.304 c -0.648,0.432 -1.08,0.576 -1.8,0.576 z"
       id="path329" />
  </g>
</svg>
